{
    "asset" : {
        "generator" : "Khronos glTF Blender I/O v1.4.40",
        "version" : "2.0"
    },
    "scene" : 0,
    "scenes" : [
        {
            "name" : "Scene",
            "nodes" : [
                0,
                1,
                2,
                3,
                4
            ]
        }
    ],
    "nodes" : [
        {
            "name" : "Light",
            "rotation" : [
                0.16907575726509094,
                0.7558803558349609,
                -0.27217137813568115,
                0.570947527885437
            ],
            "translation" : [
                4.076245307922363,
                5.903861999511719,
                -1.0054539442062378
            ]
        },
        {
            "name" : "Camera",
            "rotation" : [
                0.483536034822464,
                0.33687159419059753,
                -0.20870360732078552,
                0.7804827094078064
            ],
            "translation" : [
                7.358891487121582,
                4.958309173583984,
                6.925790786743164
            ]
        },
        {
            "mesh" : 0,
            "name" : "Keyboard",
            "rotation" : [
                0,
                0,
                -0.7103022933006287,
                0.7038967609405518
            ],
            "scale" : [
                0.0047628507018089294,
                -0.1199302077293396,
                -0.22492624819278717
            ],
            "translation" : [
                0.08269760012626648,
                -0.18220719695091248,
                -0.07460750639438629
            ]
        },
        {
            "mesh" : 1,
            "name" : "Laptop",
            "rotation" : [
                0,
                0,
                -0.7103022933006287,
                0.7038967609405518
            ],
            "scale" : [
                0.025577394291758537,
                0.5446023941040039,
                0.9744271039962769
            ],
            "translation" : [
                -0.3028636574745178,
                -0.20759043097496033,
                -0.11079920828342438
            ]
        },
        {
            "mesh" : 2,
            "name" : "Screen",
            "scale" : [
                0.00819194596260786,
                0.46932265162467957,
                0.9491114020347595
            ],
            "translation" : [
                -0.8179272413253784,
                0.365002304315567,
                -0.11097060143947601
            ]
        }
    ],
    "materials" : [
        {
            "doubleSided" : true,
            "name" : "Black",
            "pbrMetallicRoughness" : {
                "baseColorFactor" : [
                    0.029244309291243553,
                    0.029244309291243553,
                    0.029244309291243553,
                    1
                ],
                "metallicFactor" : 0
            }
        },
        {
            "doubleSided" : true,
            "name" : "Black.006",
            "pbrMetallicRoughness" : {
                "baseColorFactor" : [
                    0.01606801152229309,
                    0.01606801152229309,
                    0.01606801152229309,
                    1
                ],
                "metallicFactor" : 0,
                "roughnessFactor" : 0.5
            }
        },
        {
            "doubleSided" : true,
            "name" : "Black.024",
            "pbrMetallicRoughness" : {
                "baseColorFactor" : [
                    0.01606801152229309,
                    0.01606801152229309,
                    0.01606801152229309,
                    1
                ],
                "metallicFactor" : 0,
                "roughnessFactor" : 0.5
            }
        },
        {
            "doubleSided" : true,
            "name" : "Gray_Metal",
            "pbrMetallicRoughness" : {
                "baseColorFactor" : [
                    0.1491529643535614,
                    0.1491529643535614,
                    0.1491529643535614,
                    1
                ],
                "metallicFactor" : 0,
                "roughnessFactor" : 0.5
            }
        },
        {
            "doubleSided" : true,
            "name" : "Black_Metal.001",
            "pbrMetallicRoughness" : {
                "baseColorFactor" : [
                    0,
                    0,
                    0,
                    1
                ],
                "metallicFactor" : 0
            }
        }
    ],
    "meshes" : [
        {
            "name" : "Cube.013",
            "primitives" : [
                {
                    "attributes" : {
                        "POSITION" : 0,
                        "NORMAL" : 1,
                        "TEXCOORD_0" : 2
                    },
                    "indices" : 3,
                    "material" : 0
                },
                {
                    "attributes" : {
                        "POSITION" : 4,
                        "NORMAL" : 5,
                        "TEXCOORD_0" : 6
                    },
                    "indices" : 7,
                    "material" : 1
                },
                {
                    "attributes" : {
                        "POSITION" : 8,
                        "NORMAL" : 9,
                        "TEXCOORD_0" : 10
                    },
                    "indices" : 3,
                    "material" : 2
                }
            ]
        },
        {
            "name" : "Cube.002",
            "primitives" : [
                {
                    "attributes" : {
                        "POSITION" : 11,
                        "NORMAL" : 12,
                        "TEXCOORD_0" : 13
                    },
                    "indices" : 14,
                    "material" : 3
                }
            ]
        },
        {
            "name" : "Cube.003",
            "primitives" : [
                {
                    "attributes" : {
                        "POSITION" : 15,
                        "NORMAL" : 16,
                        "TEXCOORD_0" : 17
                    },
                    "indices" : 3,
                    "material" : 4
                }
            ]
        }
    ],
    "accessors" : [
        {
            "bufferView" : 0,
            "componentType" : 5126,
            "count" : 384,
            "max" : [
                1,
                1,
                1
            ],
            "min" : [
                -1,
                -1,
                -1
            ],
            "type" : "VEC3"
        },
        {
            "bufferView" : 1,
            "componentType" : 5126,
            "count" : 384,
            "type" : "VEC3"
        },
        {
            "bufferView" : 2,
            "componentType" : 5126,
            "count" : 384,
            "type" : "VEC2"
        },
        {
            "bufferView" : 3,
            "componentType" : 5123,
            "count" : 756,
            "type" : "SCALAR"
        },
        {
            "bufferView" : 4,
            "componentType" : 5126,
            "count" : 19200,
            "max" : [
                2.033308744430542,
                7.303812503814697,
                3.7885751724243164
            ],
            "min" : [
                -5.851367950439453,
                1.575543761253357,
                -3.8232407569885254
            ],
            "type" : "VEC3"
        },
        {
            "bufferView" : 5,
            "componentType" : 5126,
            "count" : 19200,
            "type" : "VEC3"
        },
        {
            "bufferView" : 6,
            "componentType" : 5126,
            "count" : 19200,
            "type" : "VEC2"
        },
        {
            "bufferView" : 7,
            "componentType" : 5123,
            "count" : 37800,
            "type" : "SCALAR"
        },
        {
            "bufferView" : 8,
            "componentType" : 5126,
            "count" : 384,
            "max" : [
                1.0721523761749268,
                3.7967350482940674,
                3.7937865257263184
            ],
            "min" : [
                -5.508387565612793,
                2.8270113468170166,
                2.5180439949035645
            ],
            "type" : "VEC3"
        },
        {
            "bufferView" : 9,
            "componentType" : 5126,
            "count" : 384,
            "type" : "VEC3"
        },
        {
            "bufferView" : 10,
            "componentType" : 5126,
            "count" : 384,
            "type" : "VEC2"
        },
        {
            "bufferView" : 11,
            "componentType" : 5126,
            "count" : 768,
            "max" : [
                1,
                1,
                1.0033667087554932
            ],
            "min" : [
                -42.157657623291016,
                -1.0637214183807373,
                -1
            ],
            "type" : "VEC3"
        },
        {
            "bufferView" : 12,
            "componentType" : 5126,
            "count" : 768,
            "type" : "VEC3"
        },
        {
            "bufferView" : 13,
            "componentType" : 5126,
            "count" : 768,
            "type" : "VEC2"
        },
        {
            "bufferView" : 14,
            "componentType" : 5123,
            "count" : 1512,
            "type" : "SCALAR"
        },
        {
            "bufferView" : 15,
            "componentType" : 5126,
            "count" : 384,
            "max" : [
                1,
                1,
                1
            ],
            "min" : [
                -1,
                -1,
                -1
            ],
            "type" : "VEC3"
        },
        {
            "bufferView" : 16,
            "componentType" : 5126,
            "count" : 384,
            "type" : "VEC3"
        },
        {
            "bufferView" : 17,
            "componentType" : 5126,
            "count" : 384,
            "type" : "VEC2"
        }
    ],
    "bufferViews" : [
        {
            "buffer" : 0,
            "byteLength" : 4608,
            "byteOffset" : 0
        },
        {
            "buffer" : 0,
            "byteLength" : 4608,
            "byteOffset" : 4608
        },
        {
            "buffer" : 0,
            "byteLength" : 3072,
            "byteOffset" : 9216
        },
        {
            "buffer" : 0,
            "byteLength" : 1512,
            "byteOffset" : 12288
        },
        {
            "buffer" : 0,
            "byteLength" : 230400,
            "byteOffset" : 13800
        },
        {
            "buffer" : 0,
            "byteLength" : 230400,
            "byteOffset" : 244200
        },
        {
            "buffer" : 0,
            "byteLength" : 153600,
            "byteOffset" : 474600
        },
        {
            "buffer" : 0,
            "byteLength" : 75600,
            "byteOffset" : 628200
        },
        {
            "buffer" : 0,
            "byteLength" : 4608,
            "byteOffset" : 703800
        },
        {
            "buffer" : 0,
            "byteLength" : 4608,
            "byteOffset" : 708408
        },
        {
            "buffer" : 0,
            "byteLength" : 3072,
            "byteOffset" : 713016
        },
        {
            "buffer" : 0,
            "byteLength" : 9216,
            "byteOffset" : 716088
        },
        {
            "buffer" : 0,
            "byteLength" : 9216,
            "byteOffset" : 725304
        },
        {
            "buffer" : 0,
            "byteLength" : 6144,
            "byteOffset" : 734520
        },
        {
            "buffer" : 0,
            "byteLength" : 3024,
            "byteOffset" : 740664
        },
        {
            "buffer" : 0,
            "byteLength" : 4608,
            "byteOffset" : 743688
        },
        {
            "buffer" : 0,
            "byteLength" : 4608,
            "byteOffset" : 748296
        },
        {
            "buffer" : 0,
            "byteLength" : 3072,
            "byteOffset" : 752904
        }
    ],
    "buffers" : [
        {
            "byteLength" : 755976,
            "uri" : "data:application/octet-stream;base64,"
        }
    ]
}
